<svg width="21" height="20" viewBox="0 0 21 20" fill="none" xmlns="http://www.w3.org/2000/svg">
<g clip-path="url(#clip0_205_494)">
<path d="M17.825 1H3.82495C2.72038 1 1.82495 1.89543 1.82495 3V6C1.82495 7.10457 2.72038 8 3.82495 8H17.825C18.9295 8 19.825 7.10457 19.825 6V3C19.825 1.89543 18.9295 1 17.825 1Z" stroke="white" stroke-width="2" stroke-linecap="square" stroke-linejoin="round"/>
<path d="M5.32495 5.5C5.87724 5.5 6.32495 5.05228 6.32495 4.5C6.32495 3.94772 5.87724 3.5 5.32495 3.5C4.77267 3.5 4.32495 3.94772 4.32495 4.5C4.32495 5.05228 4.77267 5.5 5.32495 5.5Z" fill="white"/>
<path d="M17.825 12H3.82495C2.72038 12 1.82495 12.8954 1.82495 14V17C1.82495 18.1046 2.72038 19 3.82495 19H17.825C18.9295 19 19.825 18.1046 19.825 17V14C19.825 12.8954 18.9295 12 17.825 12Z" stroke="white" stroke-width="2" stroke-linecap="square" stroke-linejoin="round"/>
<path d="M5.32495 16.5C5.87724 16.5 6.32495 16.0523 6.32495 15.5C6.32495 14.9477 5.87724 14.5 5.32495 14.5C4.77267 14.5 4.32495 14.9477 4.32495 15.5C4.32495 16.0523 4.77267 16.5 5.32495 16.5Z" fill="white"/>
</g>
<defs>
<clipPath id="clip0_205_494">
<rect width="20" height="20" fill="white" transform="translate(0.824951)"/>
</clipPath>
</defs>
</svg>
