<svg width="65" height="46" viewBox="0 0 65 46" fill="none" xmlns="http://www.w3.org/2000/svg">
<path d="M44.6155 7.92015C42.5374 5.83833 39.7973 4.54976 36.8703 4.27696C33.9433 4.00419 31.0131 4.76483 28.5869 6.42742C27.9984 6.82644 27.4472 7.27793 26.9387 7.77571C26.8941 7.81416 26.8489 7.8578 26.7866 7.91962V7.92014C26.4711 8.23292 26.1753 8.56492 25.9002 8.91406L25.8898 8.92757L25.8878 8.93017L25.8872 8.93069H25.8878C25.5395 9.35672 25.2224 9.80771 24.9396 10.2795C23.4605 12.6919 22.8378 15.5338 23.173 18.3446C23.5077 21.1555 24.7808 23.7709 26.7851 25.7671C26.8707 25.8539 26.9507 25.9323 27.0057 25.978C27.3238 26.2841 27.6575 26.5729 28.0063 26.8436L28.0073 26.8441L28.0109 26.8473C28.4936 27.2182 29.0027 27.5539 29.5341 27.851C30.0702 28.1545 30.6292 28.4168 31.2052 28.6361C33.4783 29.5032 35.9538 29.6939 38.3333 29.1847C40.7122 28.6761 42.894 27.49 44.6154 25.7686H44.6159C46.9752 23.3989 48.3001 20.1896 48.3001 16.8441C48.3001 13.4987 46.9747 10.2894 44.6155 7.92015ZM29.1336 24.7096C28.9411 24.9018 28.7366 25.0847 28.5264 25.2598C28.5093 25.2739 28.4911 25.2868 28.474 25.3009L28.4667 25.2952C28.3121 25.1616 28.16 25.0234 28.008 24.8774C27.9504 24.827 27.8969 24.7735 27.8383 24.7143C26.0701 22.9535 24.947 20.6467 24.6513 18.1673C24.356 15.6874 24.9056 13.1806 26.2108 11.053C26.3597 10.8067 26.5113 10.5807 26.6669 10.363C26.6784 10.3469 26.6913 10.3319 26.7028 10.3158C26.7593 10.3428 26.8174 10.3667 26.873 10.3953C26.9633 10.4415 27.052 10.4898 27.1402 10.5386C27.2959 10.6249 27.4485 10.7158 27.598 10.8114C27.6826 10.8655 27.7672 10.9184 27.8497 10.9751C28.0059 11.0821 28.1579 11.1969 28.3074 11.3144C28.3754 11.3679 28.4449 11.4177 28.5114 11.4733C28.7236 11.65 28.9307 11.8355 29.1284 12.0329V12.0334C30.8057 13.7153 31.7482 15.994 31.7493 18.3705C31.7498 20.747 30.8094 23.0263 29.1336 24.7096ZM31.3113 27.0637C31.2718 27.0466 31.2324 27.031 31.1935 27.0138C30.8759 26.8725 30.5624 26.7218 30.2619 26.5514C30.0751 26.447 29.8903 26.3316 29.7061 26.2137C29.8711 26.0682 30.031 25.9175 30.1861 25.7627H30.1856C32.1401 23.8003 33.2372 21.1418 33.2367 18.3705C33.2357 15.5991 32.1365 12.9411 30.1804 10.9803C29.9573 10.7569 29.7238 10.5486 29.4845 10.3486C29.4134 10.2888 29.3397 10.2322 29.2671 10.1745C29.0875 10.0321 28.9043 9.89654 28.7169 9.76665C28.6396 9.71314 28.5633 9.6591 28.485 9.60818C28.2369 9.44661 27.9836 9.29333 27.7221 9.15357C27.7101 9.14733 27.6992 9.13954 27.6873 9.1333C27.7439 9.07459 27.7932 9.01848 27.8534 8.95821L27.9411 8.87509C28.1492 8.67089 28.3677 8.47814 28.5908 8.29214C28.6547 8.23915 28.7201 8.18875 28.7844 8.13731C28.8737 8.06613 28.9666 8.00067 29.0579 7.9326C32.2652 9.86386 34.4059 13.1656 34.8626 16.8841C35.3198 20.6031 34.0421 24.3252 31.3984 26.9776C31.3694 27.0062 31.3408 27.0347 31.3113 27.0633L31.3113 27.0637ZM43.5632 24.7148C40.7577 27.5167 36.6749 28.6135 32.8448 27.5941C35.5368 24.6706 36.8191 20.7157 36.3552 16.7666C35.8912 12.8175 33.7271 9.26831 30.4306 7.05029C33.589 5.34461 37.3759 5.27079 40.5988 6.85233C43.8216 8.43339 46.0827 11.4754 46.6713 15.0198C47.2593 18.5641 46.102 22.1746 43.5631 24.7142L43.5632 24.7148Z" fill="white"/>
<path d="M53.5766 26.1718C53.1671 25.7676 52.6393 25.5052 52.07 25.4232C51.5006 25.3411 50.9199 25.4445 50.4134 25.7167L49.9292 25.2314V25.232C51.7736 22.0695 52.5245 18.3862 52.0647 14.7535C51.6054 11.1209 49.9613 7.74102 47.3877 5.13913H47.3872C44.3087 2.06801 40.1465 0.332663 35.8006 0.308855C31.4547 0.284436 27.2733 1.97304 24.1611 5.00985C24.1129 5.04934 24.0641 5.09662 24.0158 5.14442C23.6364 5.52474 23.2903 5.917 22.9675 6.30978H22.967C19.3493 6.00013 15.7797 7.30889 13.217 9.88434C11.305 11.8165 10.0772 14.3218 9.71966 17.0179C9.36214 19.7139 9.89507 22.453 11.2377 24.8176L11.0851 24.9703C10.6829 24.7874 10.2345 24.7313 9.79961 24.8087C9.36472 24.8867 8.96354 25.0945 8.64904 25.4057L1.24332 32.8187C0.834372 33.2281 0.60498 33.7825 0.60498 34.3608C0.60498 34.9396 0.83489 35.4939 1.24332 35.9029L4.7558 39.4197C5.16475 39.827 5.71849 40.0546 6.29508 40.0541C6.87165 40.0536 7.42488 39.8239 7.8333 39.4161L15.2385 32.002C15.5499 31.6877 15.7585 31.286 15.8363 30.8501C15.9137 30.4147 15.8576 29.9653 15.6739 29.5627L15.8192 29.4172C18.9574 31.2325 22.7371 31.566 26.1442 30.329C26.48 30.569 26.8241 30.8013 27.1791 31.0133V31.0127C29.7308 32.5459 32.6485 33.3616 35.6243 33.3747C38.6005 33.3871 41.525 32.5964 44.0898 31.085L44.5672 31.563C44.2927 32.0711 44.1889 32.6535 44.2709 33.225C44.3529 33.7965 44.6165 34.3265 45.0224 34.7364L55.0557 44.7805C55.5591 45.2845 56.2416 45.5677 56.9531 45.5682C57.6646 45.5692 58.3475 45.2871 58.852 44.7842L63.6104 40.0204L63.6099 40.0209C64.1133 39.5159 64.3961 38.8316 64.3961 38.1188C64.3961 37.4054 64.1133 36.7211 63.6099 36.2166L53.5766 26.1718ZM14.1871 30.9486L6.78135 38.3627C6.51305 38.6318 6.07814 38.6334 5.80776 38.3658L2.29582 34.8494H2.29633C2.16659 34.72 2.09394 34.5439 2.09394 34.3605C2.09394 34.1771 2.1666 34.0015 2.29633 33.8721L9.70153 26.4586C9.83179 26.3287 10.0082 26.2565 10.192 26.257C10.3679 26.2559 10.5371 26.3235 10.6642 26.4451L14.1948 29.9796C14.4569 30.2508 14.4533 30.6821 14.1871 30.9486ZM16.1067 27.8562L16.1031 27.8526C15.949 27.7539 15.8062 27.6385 15.6573 27.532L15.6578 27.5325C15.2712 27.2556 14.9027 26.9553 14.554 26.6322C14.4611 26.5454 14.3604 26.4674 14.2706 26.3776C13.9255 26.0269 13.6048 25.6528 13.31 25.2579C13.1314 25.022 12.9529 24.7862 12.7946 24.5368C11.4655 22.4378 10.8879 19.9496 11.1557 17.4792C11.424 15.0087 12.5216 12.7023 14.2696 10.9373C16.29 8.90486 19.0328 7.75555 21.8975 7.74211C21.858 7.80186 21.8279 7.86629 21.789 7.92655C21.7112 8.04813 21.6266 8.1697 21.5539 8.29129C21.3878 8.55782 21.2306 8.84253 21.0765 9.13817C21.0666 9.15687 21.0541 9.17402 21.0443 9.19272C20.9654 9.20051 20.8886 9.2161 20.8102 9.22597C20.6846 9.24156 20.5601 9.2587 20.436 9.27897C20.2798 9.30442 20.1257 9.33508 19.9716 9.36833C19.8506 9.39431 19.7302 9.42081 19.6104 9.45198C19.4562 9.49147 19.3047 9.53719 19.1531 9.58447C19.0364 9.62084 18.9201 9.65617 18.8054 9.69721C18.6544 9.75073 18.506 9.81152 18.3581 9.87231C18.2475 9.91803 18.1359 9.96219 18.027 10.0121C17.878 10.0801 17.7332 10.1565 17.5879 10.2324C17.4846 10.2864 17.3803 10.3373 17.2791 10.395C17.1307 10.4797 16.9875 10.5732 16.8432 10.6662C16.7508 10.7254 16.6564 10.7815 16.5661 10.8439C16.4109 10.9519 16.2619 11.0699 16.1125 11.1873C16.0398 11.2445 15.9635 11.2969 15.8924 11.3567C15.675 11.5385 15.4653 11.7302 15.2629 11.9318C13.3417 13.8411 12.3292 16.4821 12.4808 19.188C12.6318 21.8934 13.9329 24.4049 16.0549 26.0872C16.1436 26.1584 16.2365 26.2213 16.3273 26.2893C16.5183 26.4317 16.7119 26.5683 16.9117 26.6951C17.0217 26.7647 17.1338 26.8302 17.2464 26.8956C17.439 27.0068 17.6341 27.1102 17.8329 27.2069C17.9497 27.264 18.0659 27.3212 18.1853 27.3731C18.4006 27.4672 18.6202 27.5492 18.8418 27.6272C18.9466 27.6641 19.0488 27.7062 19.1547 27.7389L19.1542 27.7378C19.4765 27.8392 19.8045 27.9228 20.1356 27.9893C20.2108 28.0044 20.2881 28.0101 20.3639 28.0231C20.6276 28.0683 20.8922 28.1057 21.1595 28.1286C21.2861 28.1395 21.4138 28.1415 21.5415 28.1473C21.6826 28.1535 21.8222 28.168 21.9639 28.168C22.0412 28.168 22.1191 28.1576 22.1964 28.1556C22.349 28.1519 22.5005 28.1426 22.6536 28.1317C22.8643 28.1166 23.075 28.0937 23.2852 28.0641C23.3698 28.0522 23.4539 28.0511 23.5385 28.0371C23.6931 28.206 23.8519 28.3733 24.0165 28.5374C24.2521 28.7738 24.4934 29.0014 24.7399 29.2196C21.7983 29.9917 18.6685 29.4976 16.1068 27.8563L16.1067 27.8562ZM19.1874 17.5373C19.1926 17.6558 19.1931 17.7747 19.2009 17.8932C19.2487 18.6398 19.3468 19.3822 19.4946 20.1153C19.5185 20.2333 19.5486 20.3502 19.5751 20.4676C19.6311 20.7154 19.6893 20.9627 19.7562 21.2074C19.7941 21.3457 19.8367 21.4823 19.8782 21.62C19.9456 21.8434 20.0167 22.0658 20.0941 22.2866C20.1434 22.4279 20.1953 22.5687 20.2487 22.709C20.3307 22.9246 20.4179 23.1392 20.5098 23.3517C20.5689 23.4888 20.6276 23.6265 20.6904 23.7621C20.7916 23.9814 20.9005 24.197 21.0116 24.4126C21.0749 24.5357 21.1356 24.6594 21.2021 24.781C21.3422 25.0366 21.4927 25.287 21.6468 25.5364C21.6941 25.6128 21.7366 25.6912 21.7854 25.7666C21.979 26.0679 22.183 26.3641 22.3973 26.6545C22.2141 26.6644 22.0314 26.6701 21.8487 26.6675C21.7704 26.6664 21.692 26.6716 21.6136 26.668L21.6142 26.6675C21.308 26.6545 21.0023 26.6233 20.6992 26.575C20.6266 26.563 20.5555 26.5433 20.4828 26.5293C20.2555 26.4862 20.0297 26.4368 19.8076 26.3744C19.6971 26.3433 19.5886 26.3048 19.4796 26.2685C19.298 26.2087 19.1174 26.1448 18.9404 26.0721C18.8257 26.0248 18.7131 25.9739 18.6005 25.9219C18.4308 25.8429 18.2642 25.7567 18.0997 25.6652C17.9933 25.606 17.8864 25.5473 17.7821 25.4829C17.6082 25.3753 17.4401 25.2579 17.274 25.1368C17.1894 25.075 17.1022 25.0179 17.0192 24.9524H17.0197C15.0652 23.4321 13.9281 21.0884 13.9438 18.6112C13.9588 16.1334 15.1239 13.8036 17.097 12.3078C17.1588 12.26 17.22 12.2128 17.2828 12.167C17.5527 11.9691 17.835 11.7883 18.1277 11.6257C18.1713 11.6018 18.2164 11.582 18.2606 11.5592C18.5278 11.4189 18.8029 11.2942 19.0847 11.1856C19.1496 11.1607 19.2134 11.1331 19.2788 11.1097H19.2783C19.5912 10.9975 19.9109 10.905 20.2352 10.8328C20.2586 10.8276 20.2825 10.8245 20.3063 10.8193C20.1735 11.1581 20.0526 11.4994 19.9441 11.8439C19.9192 11.9228 19.9 12.0023 19.8761 12.0813C19.7894 12.3686 19.7074 12.6565 19.6369 12.9464C19.6047 13.0778 19.5793 13.2103 19.5507 13.3428C19.4983 13.5834 19.4485 13.8239 19.4075 14.0655C19.3826 14.2105 19.3623 14.3554 19.341 14.5009C19.3078 14.7326 19.2788 14.9638 19.2554 15.1961C19.2404 15.3441 19.2269 15.4917 19.216 15.6403C19.1988 15.8751 19.1879 16.1105 19.1807 16.3453C19.1765 16.4872 19.1708 16.6285 19.1698 16.7703C19.1687 17.026 19.177 17.2817 19.1874 17.5373ZM43.8058 29.5235C41.4425 31.0296 38.7069 31.8475 35.906 31.8849C33.1051 31.9223 30.3489 31.1783 27.946 29.736C27.5184 29.4804 27.1048 29.2014 26.7072 28.9011C26.1234 28.4668 25.5717 27.9893 25.0585 27.4729C25.0408 27.4552 25.0253 27.4365 25.0081 27.4188L24.9978 27.4069C24.8488 27.2578 24.7108 27.1029 24.5707 26.9492C24.5053 26.8775 24.4352 26.8078 24.3714 26.7351L24.3703 26.7356C23.8773 26.1709 23.4268 25.5702 23.0221 24.9384C20.4091 20.8572 19.9285 15.7625 21.7314 11.2627C21.8705 10.9151 22.0231 10.5711 22.1891 10.2308L22.1902 10.2287C22.4035 9.79335 22.6386 9.36887 22.895 8.95737C22.9515 8.86437 23.0143 8.7719 23.074 8.67888C23.3236 8.2939 23.5847 7.91513 23.8701 7.55301L23.8867 7.53067H23.8872C24.2531 7.06203 24.6481 6.61676 25.0689 6.19701L25.1566 6.11388C28.9763 2.35484 34.5049 0.913572 39.6713 2.32996C44.8366 3.74622 48.8602 7.80665 50.2334 12.9898C51.6066 18.1724 50.1219 23.6953 46.3365 27.4889C45.5699 28.2578 44.7215 28.94 43.8065 29.5235L43.8058 29.5235ZM45.371 30.2602C45.3825 30.2519 45.3928 30.2425 45.4043 30.2342C45.7089 30.0139 46.0042 29.7791 46.2943 29.5365C46.3685 29.4741 46.4427 29.4118 46.5159 29.3479C46.8143 29.0891 47.1075 28.8231 47.3883 28.542C47.667 28.263 47.9317 27.971 48.1891 27.6733C48.256 27.5959 48.3219 27.518 48.3873 27.4395C48.6266 27.1527 48.858 26.8607 49.0765 26.5594C49.0869 26.5449 49.0993 26.5313 49.1097 26.5168L49.2711 26.6784L45.5324 30.4219L45.371 30.2602ZM62.5588 38.9675L57.8004 43.7313L57.8009 43.7308C57.3317 44.1963 56.5756 44.1942 56.1085 43.7271L46.0752 33.6824C45.6138 33.2216 45.6055 32.4755 46.0565 32.0043L46.0591 32.0027L50.8455 27.2114V27.2109C51.3168 26.7589 52.062 26.7651 52.5255 27.2249L62.5589 37.2696C63.0265 37.7388 63.0265 38.4984 62.5589 38.9676L62.5588 38.9675Z" fill="white"/>
</svg>
