<svg width="21" height="20" viewBox="0 0 21 20" fill="none" xmlns="http://www.w3.org/2000/svg">
<g clip-path="url(#clip0_205_472)">
<path d="M14.3613 18.5497C12.9546 19.3441 12.2513 19.7414 11.5035 19.8968C10.8419 20.0344 10.1581 20.0344 9.49648 19.8968C8.74871 19.7414 8.04537 19.3441 6.63867 18.5497L4.86132 17.5459C3.45462 16.7515 2.75127 16.3542 2.23975 15.7985C1.78715 15.3068 1.44526 14.7276 1.23623 14.0983C1 13.3871 1 12.5927 1 11.0038V8.99622C1 7.40734 1 6.6129 1.23624 5.9017C1.44526 5.27244 1.78716 4.69317 2.23975 4.20147C2.75128 3.64575 3.45462 3.24853 4.86132 2.45409L6.63868 1.45031C8.04537 0.655869 8.74872 0.258648 9.49648 0.103173C10.1581 -0.0343911 10.8419 -0.034391 11.5035 0.103173C12.2513 0.258648 12.9546 0.655869 14.3613 1.45031L16.1387 2.45409C17.5454 3.24853 18.2487 3.64575 18.7603 4.20147C19.2128 4.69317 19.5547 5.27244 19.7637 5.9017C20 6.6129 20 7.40734 20 8.99622V11.0038C20 12.5927 20 13.3871 19.7637 14.0983C19.5547 14.7276 19.2128 15.3068 18.7603 15.7985C18.2487 16.3542 17.5454 16.7515 16.1387 17.5459L14.3613 18.5497Z" fill="white"/>
<g clip-path="url(#clip1_205_472)">
<path d="M16.8999 11.1258C16.9834 10.6571 17.0146 10.1677 16.9937 9.68853C16.9834 9.36573 16.9416 9.06367 16.879 8.77207C16.8373 8.59498 16.7957 8.4179 16.7436 8.24098C16.608 7.79321 16.5655 7.43013 16.123 7.3139C15.8597 7.24464 15.2523 7.52235 15.2523 7.52235C14.9185 7.72018 14.7727 8.12647 14.9185 8.48047C15.1167 9.00127 15.2107 9.55327 15.2002 10.1053V10.2824C15.1481 11.1155 14.8457 11.9174 14.3242 12.584C14.2304 12.7089 14.126 12.8234 14.0113 12.9381C14.0113 12.9486 14.0009 12.9486 14.0009 12.9589L13.9904 12.9693C13.4275 13.5004 12.7496 13.8755 12.0197 14.0629C12.0092 14.0629 11.9988 14.0629 11.9883 14.0733C11.2479 14.2504 10.4659 14.2192 9.715 13.9796H9.70455C9.69769 13.9796 9.69077 13.9761 9.6838 13.9691C9.53775 13.917 9.39169 13.8649 9.2458 13.792C9.17277 13.7608 9.09975 13.7294 9.03717 13.6878L13.1667 11.1153C13.7299 10.7716 13.6464 9.92801 13.0207 9.70927L12.906 9.66761C12.3428 9.46978 12.1969 8.75115 12.6349 8.35533L16.9625 4.34578L15.4296 5.2415C15.1584 5.39767 14.8248 5.35601 14.564 5.16864C14.1365 4.85613 13.6673 4.5959 13.1667 4.40835C12.4159 4.11658 11.6233 3.98133 10.8204 4.00207C10.0383 4.03327 9.28746 4.1999 8.57843 4.51241C7.85877 4.83521 7.22277 5.2727 6.69083 5.83515C6.12786 6.40807 5.70032 7.08487 5.4082 7.84515C4.87643 9.20955 4.86598 10.6988 5.36655 12.0527C5.53335 12.5109 6.07575 12.7088 6.50329 12.4797L6.70129 12.3652C7.03506 12.1777 7.1914 11.782 7.06626 11.4278C6.7222 10.4905 6.7222 9.44904 7.09763 8.49075C7.50426 7.44933 8.28632 6.62647 9.30837 6.16824C10.3303 5.72047 11.467 5.6891 12.5201 6.09538C12.7913 6.19961 13.052 6.33487 13.3023 6.49121L9.14157 8.91795C8.55752 9.25121 8.641 10.1157 9.277 10.3343C9.80895 10.5218 9.97575 11.1988 9.58986 11.6154L5.73152 15.7605L7.33746 14.7608C7.47306 14.865 7.60866 14.9586 7.75455 15.0524C8.27603 15.3856 8.839 15.6356 9.43352 15.8022C9.44397 15.8022 9.45426 15.8022 9.45426 15.8126C9.47517 15.8126 9.49609 15.8231 9.50655 15.8231H9.52729C9.94437 15.9273 10.3719 15.9897 10.7995 16.0002H10.9872C11.467 16.0002 11.9467 15.9481 12.4054 15.8336C12.9269 15.7086 13.4275 15.5108 13.9071 15.2504C14.2721 15.0525 14.6161 14.8129 14.929 14.5422C14.9395 14.5317 14.9499 14.5214 14.9707 14.511C14.9811 14.5005 14.9916 14.4902 15.002 14.4902L15.0125 14.4798C15.0229 14.4693 15.0332 14.4589 15.0437 14.4589C15.5026 14.0423 15.878 13.5736 16.1909 13.0425C16.2012 13.0321 16.2012 13.0216 16.2012 13.0113C16.2012 13.0009 16.2116 13.0009 16.2116 12.9906C16.316 12.8135 16.4098 12.6261 16.4933 12.449C16.6601 12.0846 16.7748 11.6992 16.8687 11.3138" fill="black"/>
</g>
</g>
<defs>
<clipPath id="clip0_205_472">
<rect width="21" height="20" fill="white"/>
</clipPath>
<clipPath id="clip1_205_472">
<rect width="12" height="12" fill="white" transform="translate(5 4)"/>
</clipPath>
</defs>
</svg>
