<svg width="21" height="20" viewBox="0 0 21 20" fill="none" xmlns="http://www.w3.org/2000/svg">
<path d="M14.2779 18.5497C12.9019 19.3441 12.2139 19.7414 11.4824 19.8968C10.8352 20.0344 10.1663 20.0344 9.51919 19.8968C8.78773 19.7414 8.09973 19.3441 6.72371 18.5497L4.98512 17.5459C3.6091 16.7515 2.92109 16.3542 2.42072 15.7985C1.97799 15.3068 1.64356 14.7276 1.43909 14.0983C1.20801 13.3871 1.20801 12.5927 1.20801 11.0038V8.99622C1.20801 7.40734 1.20801 6.6129 1.4391 5.9017C1.64356 5.27244 1.978 4.69317 2.42072 4.20147C2.9211 3.64575 3.6091 3.24853 4.98512 2.45409L6.72372 1.45031C8.09973 0.655869 8.78774 0.258648 9.51919 0.103173C10.1663 -0.0343911 10.8352 -0.034391 11.4824 0.103173C12.2139 0.258648 12.9019 0.655869 14.2779 1.45031L16.0165 2.45409C17.3925 3.24853 18.0805 3.64575 18.5809 4.20147C19.0236 4.69317 19.358 5.27244 19.5625 5.9017C19.7936 6.6129 19.7936 7.40734 19.7936 8.99622V11.0038C19.7936 12.5927 19.7936 13.3871 19.5625 14.0983C19.358 14.7276 19.0236 15.3068 18.5809 15.7985C18.0805 16.3542 17.3925 16.7515 16.0165 17.5459L14.2779 18.5497Z" fill="white"/>
<g clip-path="url(#clip0_205_479)">
<path d="M8.36396 15.9012C11.3802 15.9012 11.3802 15.8563 11.8916 15.7045C12.56 15.5061 10.0046 13.7373 8.36396 13.7373C6.72332 13.7373 5.39331 14.2217 5.39331 14.8193C5.39331 15.4168 6.72338 15.9012 8.36396 15.9012Z" fill="black"/>
<path d="M15.213 6.70077L15.3517 6.85028L15.2304 7.01426C11.2967 12.3329 9.03063 14.7411 8.06916 14.4181C7.48352 14.2214 6.89622 13.6297 6.3089 12.7706C6.10245 12.4686 5.9086 12.1506 5.73229 11.8342C5.61488 11.6235 5.51551 11.4313 5.46391 11.323C5.39809 11.1849 5.3703 11.0999 5.34826 10.9882C5.34691 10.9813 5.34691 10.9813 5.34563 10.9747C5.33643 10.9273 5.33325 10.9123 5.32637 10.8864C5.208 10.4403 5.14746 9.97809 5.14746 9.50812C5.14746 6.54751 7.54751 4.14746 10.5081 4.14746C11.4356 4.14746 12.3295 4.38352 13.1216 4.82664L13.142 4.83943C13.7906 5.29097 14.4804 5.9114 15.213 6.70077ZM12.871 5.24999C12.1544 4.85143 11.3469 4.63926 10.5081 4.63926C7.81912 4.63926 5.63926 6.81912 5.63926 9.50812C5.63926 9.93542 5.69425 10.3552 5.80172 10.7603C5.81235 10.8003 5.81716 10.823 5.82843 10.8811C5.82962 10.8872 5.82962 10.8872 5.83075 10.8929C5.84498 10.965 5.85999 11.011 5.90786 11.1114C5.95493 11.2102 6.04952 11.3931 6.16191 11.5948C6.33136 11.899 6.51758 12.2044 6.71489 12.493C7.24553 13.2693 7.77178 13.7994 8.22577 13.9519C8.83126 14.1553 11.1107 11.7424 14.713 6.88654C14.059 6.19623 13.4446 5.65071 12.871 5.24999Z" fill="black"/>
<path d="M12.8709 5.25038C12.1543 4.85182 11.3468 4.63965 10.508 4.63965C7.81902 4.63965 5.63916 6.81951 5.63916 9.5085C5.63916 9.9358 5.69415 10.3556 5.80162 10.7607C5.81225 10.8007 5.81705 10.8233 5.82833 10.8814C5.82951 10.8875 5.82951 10.8875 5.83065 10.8933C5.84488 10.9654 5.85989 11.0114 5.90775 11.1118C5.95482 11.2105 6.04941 11.3935 6.1618 11.5952C6.33126 11.8993 6.51748 12.2048 6.71479 12.4934C7.24543 13.2696 7.77168 13.7998 8.22566 13.9523C8.83115 14.1557 11.1106 11.7428 14.7129 6.88693C14.0589 6.19661 13.4445 5.65109 12.8709 5.25038Z" fill="#EC1C79"/>
<path d="M11.4918 15.8522C8.53115 15.8522 6.1311 13.4521 6.1311 10.4915C6.1311 7.53091 8.53115 5.13086 11.4918 5.13086C14.4524 5.13086 16.8524 7.53091 16.8524 10.4915C16.8524 13.4521 14.4524 15.8522 11.4918 15.8522ZM11.4918 15.3604C14.1808 15.3604 16.3606 13.1805 16.3606 10.4915C16.3606 7.80252 14.1808 5.62266 11.4918 5.62266C8.80277 5.62266 6.62291 7.80252 6.62291 10.4915C6.62291 13.1805 8.80277 15.3604 11.4918 15.3604Z" fill="black"/>
<path d="M11.4917 15.3608C14.1806 15.3608 16.3605 13.1809 16.3605 10.4919C16.3605 7.80291 14.1806 5.62305 11.4917 5.62305C8.80266 5.62305 6.6228 7.80291 6.6228 10.4919C6.6228 13.1809 8.80266 15.3608 11.4917 15.3608Z" fill="white"/>
<path fill-rule="evenodd" clip-rule="evenodd" d="M7.84954 11.4891L7.20508 9.5475H7.76967L8.10567 10.6629L8.47747 9.54199H8.93741L9.30921 10.6629L9.64521 9.5475H10.1988L9.55432 11.4891H9.08888L8.70055 10.3792L8.31498 11.4891H7.84954ZM10.4108 11.4754V9.5475H11.9614V10.0019H10.9396V10.2939H11.865V10.7152H10.9396V11.0209H11.9752V11.4754H10.4108ZM12.7188 11.4754V10.0157H12.1404V9.5475H13.8314V10.0157H13.2531V11.4754H12.7188ZM14.0655 11.4754V9.5475H14.5998V10.2691H15.2856V9.5475H15.8199V11.4754H15.2856V10.7428H14.5998V11.4754H14.0655Z" fill="black"/>
<path d="M5.46676 8.96809C5.33071 8.90007 5.27557 8.73464 5.34359 8.59859C5.41161 8.46255 5.57704 8.4074 5.71309 8.47543L6.49998 8.86887C6.63602 8.93689 6.69117 9.10232 6.62314 9.23837C6.55512 9.37442 6.38969 9.42956 6.25364 9.36154L5.46676 8.96809Z" fill="black"/>
<path d="M5.37638 10.2726C5.23827 10.2089 5.17798 10.0452 5.24172 9.90714C5.30546 9.76903 5.46909 9.70875 5.60719 9.77248L6.39408 10.1356C6.53218 10.1994 6.59247 10.363 6.52873 10.5011C6.465 10.6392 6.30137 10.6995 6.16326 10.6358L5.37638 10.2726Z" fill="black"/>
</g>
<defs>
<clipPath id="clip0_205_479">
<rect width="12" height="12" fill="white" transform="translate(5 4)"/>
</clipPath>
</defs>
</svg>
