<svg width="64" height="64" viewBox="0 0 64 64" fill="none" xmlns="http://www.w3.org/2000/svg">
<rect width="64" height="64" rx="32" fill="#00EB88"/>
<path d="M20 33.5C20 32.672 20.672 32 21.5 32H24.5C25.328 32 26 32.672 26 33.5V42.5C26 43.328 25.328 44 24.5 44H21.5C21.1022 44 20.7206 43.842 20.4393 43.5607C20.158 43.2794 20 42.8978 20 42.5V33.5ZM29 27.5C29 26.672 29.672 26 30.5 26H33.5C34.328 26 35 26.672 35 27.5V42.5C35 43.328 34.328 44 33.5 44H30.5C30.1022 44 29.7206 43.842 29.4393 43.5607C29.158 43.2794 29 42.8978 29 42.5V27.5ZM38 21.5C38 20.672 38.672 20 39.5 20H42.5C43.328 20 44 20.672 44 21.5V42.5C44 43.328 43.328 44 42.5 44H39.5C39.1022 44 38.7206 43.842 38.4393 43.5607C38.158 43.2794 38 42.8978 38 42.5V21.5Z" stroke="black" stroke-width="2.5" stroke-linecap="round" stroke-linejoin="round"/>
</svg>
