<svg width="27" height="27" viewBox="0 0 27 27" fill="none" xmlns="http://www.w3.org/2000/svg">
<path d="M13.5 27C21.0265 27 27 20.9071 27 13.5C27 5.97345 20.9071 0 13.5 0C5.97345 0 0 6.09292 0 13.5C0 20.9071 6.09292 27 13.5 27Z" fill="#2C374B"/>
<path fill-rule="evenodd" clip-rule="evenodd" d="M21.6308 8.87969C21.5077 8.76358 15.4769 5.39642 14.7385 5.1642C14.4923 5.04809 13.8769 4.93198 13.5077 5.04809C13.1385 5.1642 6.73846 8.64747 6.49231 8.87969C6.36923 8.9958 6.24615 9.22802 6.12308 9.34412C6 9.57634 6 9.69245 6 13.7563V17.9362L6.86154 18.4006C7.35385 18.6328 7.72308 18.8651 7.72308 18.8651C7.84615 18.8651 13.6308 10.1569 13.6308 10.0408C13.6308 9.92467 12.2769 9.92467 11.9077 10.0408C11.4154 10.1569 11.0462 10.3891 10.8 10.6213C10.6769 10.7374 9.93846 11.8985 8.95385 13.1757C8.09231 14.4529 7.35385 15.614 7.35385 15.614C7.35385 15.614 7.35385 14.4529 7.35385 12.8274V9.92467L7.47692 9.80856C7.72308 9.57634 14 6.20918 14.2462 6.20918C14.3692 6.20918 14.4923 6.20918 15.9692 7.02195C16.4615 7.25416 17.8154 7.95082 18.9231 8.64747C20.0308 9.22802 21.0154 9.80856 21.1385 9.92467L21.2615 10.0408V16.0784L18.1846 11.5502C18.0615 11.318 17.9385 11.0858 17.8154 10.9697C17.8154 10.9697 17.6923 11.2019 16.9538 12.363C16.8308 12.4791 16.7077 12.7113 16.7077 12.8274L16.5846 13.0596L16.7077 13.1757L16.8308 13.2918C16.8308 13.2918 16.8308 13.4079 16.9538 13.4079L17.2 13.7563C17.2 13.7563 17.2 13.8724 17.3231 13.8724C17.4462 13.9885 17.5692 14.2207 17.5692 14.3368C17.5692 14.3368 17.5692 14.3368 17.5692 14.4529L20.1538 18.4006L19.9077 18.5167C19.7846 18.6328 19.6615 18.6328 19.5385 18.6328L16.3385 13.9885L16.2154 13.8724L15.9692 14.3368L14.7385 16.1946L17.2 19.91C16.8308 20.1423 14.7385 21.5356 14.6154 21.5356C14.4923 21.5356 11.6615 19.7939 11.7846 19.6778C11.7846 19.6778 12.6462 18.2845 13.6308 16.659C14.4923 15.2657 15.6 13.524 16.3385 12.363C17.2 10.9697 17.5692 10.273 17.5692 10.273C17.5692 10.273 16.9538 10.273 16.2154 10.273H14.9846L12.1538 14.6851C11.1692 16.3107 10.1846 17.8201 9.69231 18.6328C8.83077 18.749 8.58462 18.9812 8.58462 18.9812L8.46154 19.2134L10.6769 20.3745C11.9077 21.0711 13.0154 21.6517 13.2615 21.7678C13.6308 22 14.2462 22 14.4923 22C14.7385 21.8839 21.1385 18.4006 21.5077 18.1684C21.6308 18.0523 21.7538 17.9362 21.8769 17.704L22 17.3556V13.524V9.69245L21.8769 9.46023C21.8769 9.22802 21.6308 8.9958 21.6308 8.87969Z" fill="white"/>
<path d="M19.881 15.6615L16.3095 10L15 12.2154L18.4524 18L20 17.2615L19.881 15.6615Z" fill="#24A2EE"/>
<path d="M19 18.5517L15.5116 13L14 15.4138L16.7907 20L18.5349 19.2759L19 18.5517Z" fill="#24A2EE"/>
<path fill-rule="evenodd" clip-rule="evenodd" d="M7.32331 10.0792L13.9398 6.27723L20.5564 10.0792V17.6832L13.9398 21.4851L9.00752 18.7525L8.40601 19.8218L13.8195 22.9109C13.9398 23.0297 14.0602 23.0297 14.1805 22.9109L21.7594 18.6337C21.8797 18.5149 22 18.396 22 18.2772V9.72277C22 9.60396 21.8797 9.48515 21.7594 9.36634L14.1805 5.08911C14.0602 4.9703 13.9398 4.9703 13.8195 5.08911L6.2406 9.24752C6.1203 9.36634 6 9.48515 6 9.60396V18.1584C6 18.2772 6.1203 18.396 6.2406 18.5149L7.80451 19.3465L8.52631 18.2772L7.44361 17.6832V10.0792H7.32331Z" fill="#98BCDC"/>
<path d="M16 10H13.6L8 19.7778L9.94286 21L16 10Z" fill="white"/>
<path d="M10.1774 10.8662C10.7419 9.93658 12.3226 9.93658 13 10.0528L7.58065 19C7.35484 18.8838 6.90323 18.6514 6.56452 18.419C6.1129 18.1866 6 18.1866 6 17.838V17.3732C7.24194 15.5141 9.6129 11.7957 10.1774 10.8662Z" fill="white"/>
</svg>
