<svg width="64" height="64" viewBox="0 0 64 64" fill="none" xmlns="http://www.w3.org/2000/svg">
<rect width="64" height="64" rx="32" fill="#00EB88"/>
<path d="M43.4004 24.0996C43.4004 27.1369 38.4751 29.5996 32.4004 29.5996C26.3257 29.5996 21.4004 27.1369 21.4004 24.0996M43.4004 24.0996C43.4004 21.0623 38.4751 18.5996 32.4004 18.5996C26.3257 18.5996 21.4004 21.0623 21.4004 24.0996M43.4004 24.0996V39.0996C43.4004 42.1369 38.4751 44.5996 32.4004 44.5996C26.3257 44.5996 21.4004 42.1369 21.4004 39.0996V24.0996M43.4004 24.0996V29.0996M21.4004 24.0996V29.0996M43.4004 29.0996V34.0996C43.4004 37.1369 38.4751 39.5996 32.4004 39.5996C26.3257 39.5996 21.4004 37.1369 21.4004 34.0996V29.0996M43.4004 29.0996C43.4004 32.1369 38.4751 34.5996 32.4004 34.5996C26.3257 34.5996 21.4004 32.1369 21.4004 29.0996" stroke="black" stroke-width="2.5" stroke-linecap="round" stroke-linejoin="round"/>
</svg>
