<svg width="32" height="32" viewBox="0 0 32 32" fill="none" xmlns="http://www.w3.org/2000/svg">
<path d="M20.576 15.2C20.576 16.176 19.856 16.976 18.944 16.976C18.048 16.976 17.312 16.176 17.312 15.2C17.312 14.224 18.032 13.424 18.944 13.424C19.856 13.424 20.576 14.224 20.576 15.2ZM13.104 13.424C12.192 13.424 11.472 14.224 11.472 15.2C11.472 16.176 12.208 16.976 13.104 16.976C14.016 16.976 14.736 16.176 14.736 15.2C14.752 14.224 14.016 13.424 13.104 13.424ZM30 3.296V32C25.9691 28.4379 27.2583 29.617 22.576 25.264L23.424 28.224H5.28C3.472 28.224 2 26.752 2 24.928V3.296C2 1.472 3.472 0 5.28 0H26.72C28.528 0 30 1.472 30 3.296ZM25.44 18.464C25.44 13.312 23.136 9.136 23.136 9.136C20.832 7.408 18.64 7.456 18.64 7.456L18.416 7.712C21.136 8.544 22.4 9.744 22.4 9.744C18.5993 7.66094 14.1348 7.66056 10.448 9.28C9.856 9.552 9.504 9.744 9.504 9.744C9.504 9.744 10.832 8.48 13.712 7.648L13.552 7.456C13.552 7.456 11.36 7.408 9.056 9.136C9.056 9.136 6.752 13.312 6.752 18.464C6.752 18.464 8.096 20.784 11.632 20.896C11.632 20.896 12.224 20.176 12.704 19.568C10.672 18.96 9.904 17.68 9.904 17.68C10.1394 17.8447 10.5275 18.0583 10.56 18.08C13.2606 19.5924 17.0968 20.0879 20.544 18.64C21.104 18.432 21.728 18.128 22.384 17.696C22.384 17.696 21.584 19.008 19.488 19.6C19.968 20.208 20.544 20.896 20.544 20.896C24.08 20.784 25.44 18.464 25.44 18.464Z" fill="white"/>
</svg>
