<svg width="32" height="32" viewBox="0 0 32 32" fill="none" xmlns="http://www.w3.org/2000/svg">
<g clip-path="url(#clip0_357_1234)">
<circle cx="15.5" cy="15.5" r="15.5" fill="white"/>
<g clip-path="url(#clip1_357_1234)">
<path d="M15.0017 20.8081C15.0786 20.8082 15.1548 20.8235 15.2258 20.853C15.2969 20.8826 15.3614 20.9258 15.4157 20.9803C15.47 21.0348 15.5131 21.0994 15.5424 21.1705C15.5718 21.2416 15.5868 21.3178 15.5867 21.3948C15.5866 21.4717 15.5713 21.5479 15.5418 21.6189C15.5123 21.6899 15.469 21.7544 15.4145 21.8088C15.3601 21.8631 15.2954 21.9062 15.2243 21.9355C15.1532 21.9648 15.077 21.9799 15 21.9798C14.8447 21.9795 14.6958 21.9176 14.586 21.8076C14.4763 21.6976 14.4148 21.5485 14.415 21.3931C14.4153 21.2377 14.4772 21.0888 14.5872 20.9791C14.6972 20.8694 14.8463 20.8079 15.0017 20.8081ZM24.1884 17.1856C24.1114 17.1855 24.0353 17.1703 23.9642 17.1408C23.8932 17.1114 23.8286 17.0682 23.7743 17.0137C23.7199 16.9593 23.6768 16.8947 23.6474 16.8236C23.618 16.7525 23.6029 16.6763 23.603 16.5994C23.603 16.5224 23.6182 16.4463 23.6477 16.3752C23.6772 16.3041 23.7204 16.2396 23.7748 16.1852C23.8293 16.1309 23.8939 16.0878 23.965 16.0584C24.0361 16.029 24.1123 16.0139 24.1892 16.0139C24.3446 16.014 24.4935 16.0759 24.6033 16.1858C24.7131 16.2958 24.7747 16.4448 24.7746 16.6002C24.7745 16.7556 24.7127 16.9045 24.6027 17.0143C24.4928 17.1241 24.3437 17.1857 24.1884 17.1856ZM24.1884 14.7889C23.708 14.7894 23.2475 14.9804 22.9078 15.32C22.5682 15.6597 22.3772 16.1203 22.3767 16.6006C22.3767 16.7948 22.4092 16.9881 22.4725 17.1764L16.4884 20.3623C16.3224 20.1213 16.1004 19.9244 15.8414 19.7883C15.5824 19.6523 15.2943 19.5813 15.0017 19.5814C14.3109 19.5814 13.6817 19.9773 13.3767 20.5948L8.00088 17.7598C7.43255 17.4614 7.00755 16.5264 7.05255 15.6748C7.07588 15.2306 7.22921 14.8856 7.46338 14.7523C7.61171 14.6689 7.79005 14.6756 7.98005 14.7748L8.01505 14.7939C9.44005 15.5439 14.1017 17.9998 14.2984 18.0906C14.6009 18.2314 14.7692 18.2881 15.2859 18.0431L24.9225 13.0314C25.0642 12.9781 25.2292 12.8423 25.2292 12.6364C25.2292 12.3514 24.9342 12.2389 24.9334 12.2389C24.385 11.9764 23.5425 11.5823 22.7209 11.1973C20.9642 10.3748 18.9734 9.4431 18.0992 8.98477C17.3442 8.58977 16.7367 8.9231 16.6284 8.98977L16.4184 9.09394C12.4834 11.0398 7.21671 13.6481 6.91671 13.8306C6.38088 14.1573 6.04838 14.8081 6.00505 15.6156C5.93838 16.8964 6.59088 18.2323 7.52505 18.7214L13.21 21.6531C13.2727 22.0837 13.4881 22.4775 13.8171 22.7624C14.1461 23.0473 14.5665 23.2043 15.0017 23.2048C15.477 23.204 15.933 23.0167 16.2716 22.6832C16.6102 22.3497 16.8045 21.8966 16.8125 21.4214L23.0742 18.0273C23.3909 18.2756 23.785 18.4114 24.1884 18.4114C24.6687 18.411 25.1293 18.22 25.4689 17.8803C25.8086 17.5407 25.9996 17.0801 26 16.5998C25.9996 16.1194 25.8086 15.6589 25.4689 15.3192C25.1293 14.9796 24.6687 14.7885 24.1884 14.7881" fill="#0D0D0D"/>
<path d="M24.1884 14.7889C23.708 14.7894 23.2475 14.9804 22.9078 15.32C22.5682 15.6597 22.3772 16.1203 22.3767 16.6006C22.3767 16.7948 22.4092 16.9881 22.4725 17.1764L16.4884 20.3623C16.3224 20.1213 16.1004 19.9244 15.8414 19.7883C15.5824 19.6523 15.2943 19.5813 15.0017 19.5814C14.3109 19.5814 13.6817 19.9773 13.3767 20.5948L8.00088 17.7598C7.43255 17.4614 7.00755 16.5264 7.05255 15.6748C7.07588 15.2306 7.22921 14.8856 7.46338 14.7523C7.61171 14.6689 7.79005 14.6756 7.98005 14.7748L8.01505 14.7939C9.44005 15.5439 14.1017 17.9998 14.2984 18.0906C14.6009 18.2314 14.7692 18.2881 15.2859 18.0431L24.9225 13.0314C25.0642 12.9781 25.2292 12.8423 25.2292 12.6364C25.2292 12.3514 24.9342 12.2389 24.9334 12.2389C24.385 11.9764 23.5425 11.5823 22.7209 11.1973C20.9642 10.3748 18.9734 9.4431 18.0992 8.98477C17.3442 8.58977 16.7367 8.9231 16.6284 8.98977L16.4184 9.09394C12.4834 11.0398 7.21671 13.6481 6.91671 13.8306C6.38088 14.1573 6.04838 14.8081 6.00505 15.6156C5.93838 16.8964 6.59088 18.2323 7.52505 18.7214L13.21 21.6531C13.2727 22.0837 13.4881 22.4775 13.8171 22.7624C14.1461 23.0473 14.5665 23.2043 15.0017 23.2048C15.477 23.204 15.933 23.0167 16.2716 22.6832C16.6102 22.3497 16.8045 21.8966 16.8125 21.4214L23.0742 18.0273C23.3909 18.2756 23.785 18.4114 24.1884 18.4114C24.6687 18.411 25.1293 18.22 25.4689 17.8803C25.8086 17.5407 25.9996 17.0801 26 16.5998C25.9996 16.1194 25.8086 15.6589 25.4689 15.3192C25.1293 14.9796 24.6687 14.7885 24.1884 14.7881M15.0017 20.8081C15.0786 20.8082 15.1548 20.8235 15.2258 20.853C15.2969 20.8826 15.3614 20.9258 15.4157 20.9803C15.47 21.0348 15.5131 21.0994 15.5424 21.1705C15.5718 21.2416 15.5868 21.3178 15.5867 21.3948C15.5866 21.4717 15.5713 21.5479 15.5418 21.6189C15.5123 21.6899 15.469 21.7544 15.4145 21.8088C15.3601 21.8631 15.2954 21.9062 15.2243 21.9355C15.1532 21.9648 15.077 21.9799 15 21.9798C14.8447 21.9795 14.6958 21.9176 14.586 21.8076C14.4763 21.6976 14.4148 21.5485 14.415 21.3931C14.4153 21.2377 14.4772 21.0888 14.5872 20.9791C14.6972 20.8694 14.8463 20.8079 15.0017 20.8081ZM24.1884 17.1856C24.1114 17.1855 24.0353 17.1703 23.9642 17.1408C23.8932 17.1114 23.8286 17.0682 23.7743 17.0137C23.7199 16.9593 23.6768 16.8947 23.6474 16.8236C23.618 16.7525 23.6029 16.6763 23.603 16.5994C23.603 16.5224 23.6182 16.4463 23.6477 16.3752C23.6772 16.3041 23.7204 16.2396 23.7748 16.1852C23.8293 16.1309 23.8939 16.0878 23.965 16.0584C24.0361 16.029 24.1123 16.0139 24.1892 16.0139C24.3446 16.014 24.4935 16.0759 24.6033 16.1858C24.7131 16.2958 24.7747 16.4448 24.7746 16.6002C24.7745 16.7556 24.7127 16.9045 24.6027 17.0143C24.4928 17.1241 24.3437 17.1857 24.1884 17.1856Z" stroke="#0D0D0D" stroke-width="1.33333"/>
</g>
</g>
<defs>
<clipPath id="clip0_357_1234">
<rect width="32" height="32" fill="white"/>
</clipPath>
<clipPath id="clip1_357_1234">
<rect width="20" height="20" fill="white" transform="translate(6 6)"/>
</clipPath>
</defs>
</svg>
