<svg width="33" height="32" viewBox="0 0 33 32" fill="none" xmlns="http://www.w3.org/2000/svg">
<path d="M2.5 2V30H30.5V2H2.5ZM25.7625 8.63125L24.2625 10.0688C24.1313 10.1688 24.0688 10.3313 24.0938 10.4875V21.0688C24.0688 21.2313 24.1313 21.3937 24.2625 21.4875L25.7313 22.925V23.2437H18.3562V22.9375L19.875 21.4625C20.025 21.3125 20.025 21.2688 20.025 21.0438V12.4875L15.8 23.2125H15.2312L10.3125 12.4875V19.675C10.2688 19.975 10.375 20.2812 10.5875 20.5L12.5625 22.8937V23.2125H6.95V22.8937L8.925 20.5C9.1375 20.2812 9.23125 19.975 9.18125 19.675V11.3625C9.20625 11.1313 9.11875 10.9062 8.94375 10.75L7.1875 8.63125V8.3125H12.6438L16.8562 17.5625L20.5625 8.31875H25.7625V8.63125Z" fill="white"/>
</svg>
