<svg width="64" height="64" viewBox="0 0 64 64" fill="none" xmlns="http://www.w3.org/2000/svg">
<rect width="64" height="64" rx="32" fill="#00EB88"/>
<path d="M28 35.0008L36 27.0014M42 22.3444V45L37 43.0002L32 45L27 43.0002L22 45V22.3444C22 20.8672 23.0747 19.602 24.5427 19.4313C29.4976 18.8562 34.5024 18.8562 39.4573 19.4313C40.924 19.602 42 20.8672 42 22.3444ZM29 28.0013H29.0107V28.012H29V28.0013ZM29.5 28.0013C29.5 28.1339 29.4473 28.2611 29.3536 28.3549C29.2598 28.4486 29.1326 28.5013 29 28.5013C28.8674 28.5013 28.7402 28.4486 28.6464 28.3549C28.5527 28.2611 28.5 28.1339 28.5 28.0013C28.5 27.8687 28.5527 27.7416 28.6464 27.6478C28.7402 27.554 28.8674 27.5014 29 27.5014C29.1326 27.5014 29.2598 27.554 29.3536 27.6478C29.4473 27.7416 29.5 27.8687 29.5 28.0013ZM35 34.0009H35.0107V34.0115H35V34.0009ZM35.5 34.0009C35.5 34.1335 35.4473 34.2606 35.3536 34.3544C35.2598 34.4481 35.1326 34.5008 35 34.5008C34.8674 34.5008 34.7402 34.4481 34.6464 34.3544C34.5527 34.2606 34.5 34.1335 34.5 34.0009C34.5 33.8683 34.5527 33.7411 34.6464 33.6473C34.7402 33.5536 34.8674 33.5009 35 33.5009C35.1326 33.5009 35.2598 33.5536 35.3536 33.6473C35.4473 33.7411 35.5 33.8683 35.5 34.0009Z" stroke="black" stroke-width="2.5" stroke-linecap="round" stroke-linejoin="round"/>
</svg>
