<svg width="33" height="32" viewBox="0 0 33 32" fill="none" xmlns="http://www.w3.org/2000/svg">
<path d="M29.2106 9.48298C29.2309 9.76723 29.2309 10.0515 29.2309 10.3358C29.2309 19.0058 22.632 28.9957 10.5711 28.9957C6.85531 28.9957 3.40356 27.9195 0.5 26.0515C1.02794 26.1124 1.5355 26.1327 2.08375 26.1327C5.14969 26.1327 7.97206 25.0972 10.2259 23.3307C7.34262 23.2698 4.92637 21.3815 4.09387 18.7825C4.5 18.8434 4.90606 18.884 5.3325 18.884C5.92131 18.884 6.51019 18.8027 7.05837 18.6607C4.05331 18.0515 1.79944 15.4119 1.79944 12.2241V12.1429C2.6725 12.6302 3.68781 12.9348 4.76388 12.9754C2.99738 11.7977 1.84006 9.78755 1.84006 7.51342C1.84006 6.29517 2.16488 5.17842 2.73344 4.2038C5.96187 8.18348 10.8147 10.7824 16.2563 11.0667C16.1548 10.5794 16.0938 10.0719 16.0938 9.56423C16.0938 5.94998 19.0177 3.00586 22.6522 3.00586C24.5405 3.00586 26.2461 3.79773 27.4441 5.07692C28.9263 4.79267 30.3476 4.24442 31.6065 3.49317C31.1191 5.01605 30.0836 6.29523 28.7232 7.10736C30.0431 6.9653 31.3222 6.59973 32.4999 6.09217C31.6066 7.39161 30.4898 8.54892 29.2106 9.48298Z" fill="white"/>
</svg>
