<svg width="18" height="18" viewBox="0 0 18 18" fill="none" xmlns="http://www.w3.org/2000/svg">
<path d="M17.9837 8.99624C17.9837 13.9422 13.9744 17.9515 9.02847 17.9515C4.08267 17.9515 0.0732422 13.9422 0.0732422 8.99624C0.0732422 4.05036 4.08267 0.0410156 9.02847 0.0410156C13.9744 0.0410156 17.9837 4.05036 17.9837 8.99624Z" fill="#1BA27A"/>
<path d="M13.2317 4.55664H4.75195V6.6038H7.96822V9.61276H10.0154V6.6038H13.2317V4.55664Z" fill="white"/>
<path d="M9.01106 9.93407C6.35046 9.93407 4.19341 9.51299 4.19341 8.9935C4.19341 8.4741 6.35037 8.05293 9.01106 8.05293C11.6717 8.05293 13.8286 8.4741 13.8286 8.9935C13.8286 9.51299 11.6717 9.93407 9.01106 9.93407ZM14.4205 9.15031C14.4205 8.48046 11.9986 7.9375 9.01106 7.9375C6.02359 7.9375 3.60156 8.48046 3.60156 9.15031C3.60156 9.74019 5.47956 10.2316 7.96813 10.3405V14.66H10.0151V10.3422C12.5228 10.2368 14.4205 9.74323 14.4205 9.15031Z" fill="white"/>
</svg>
