<svg width="37" height="36" viewBox="0 0 37 36" fill="none" xmlns="http://www.w3.org/2000/svg">
<path d="M36.2232 21.3773C36.4736 19.9713 36.5672 18.503 36.5045 17.0656C36.4737 16.0972 36.3482 15.191 36.1604 14.3162C36.0355 13.7849 35.9105 13.2537 35.7542 12.7229C35.3474 11.3796 35.2198 10.2904 33.8924 9.94169C33.1025 9.73392 31.2804 10.5671 31.2804 10.5671C30.2791 11.1605 29.8414 12.3794 30.2791 13.4414C30.8736 15.0038 31.1554 16.6598 31.1241 18.3158V18.8471C30.9677 21.3465 30.0605 23.7523 28.496 25.7519C28.2147 26.1268 27.9015 26.4703 27.5575 26.8144C27.5575 26.8457 27.5261 26.8457 27.5261 26.8766L27.4947 26.908C25.8058 28.5012 23.7723 29.6265 21.5825 30.1886C21.5511 30.1886 21.5198 30.1886 21.4884 30.22C19.2672 30.7512 16.921 30.6576 14.6684 29.9387H14.6371C14.6165 29.9387 14.5958 29.9282 14.5748 29.9073C14.1367 29.7509 13.6985 29.5946 13.2608 29.376C13.0418 29.2824 12.8227 29.1883 12.635 29.0633L25.0236 21.346C26.713 20.3148 26.4626 17.784 24.5854 17.1278L24.2414 17.0028C22.5519 16.4093 22.1143 14.2535 23.4283 13.066L36.4109 1.03735L31.8122 3.72449C30.9986 4.19301 29.9978 4.06803 29.2155 3.50592C27.9329 2.56838 26.5253 1.78769 25.0236 1.22506C22.771 0.349748 20.3935 -0.0560233 17.9846 0.00620531C15.6384 0.0998053 13.3858 0.599691 11.2587 1.53723C9.09976 2.50563 7.19176 3.81809 5.59593 5.50546C3.90702 7.22421 2.62439 9.25461 1.74805 11.5355C0.152735 15.6287 0.121363 20.0963 1.62308 24.1581C2.12348 25.5328 3.75068 26.1263 5.03331 25.4392L5.62731 25.0956C6.62862 24.533 7.09765 23.346 6.72222 22.2835C5.69005 19.4714 5.69005 16.3471 6.81633 13.4723C8.03622 10.348 10.3824 7.87941 13.4486 6.50472C16.5142 5.1614 19.9244 5.06729 23.0837 6.28615C23.8973 6.59883 24.6795 7.0046 25.4304 7.47363L12.9482 14.7539C11.196 15.7536 11.4464 18.3472 13.3544 19.0029C14.9503 19.5655 15.4507 21.5964 14.293 22.8461L2.71799 35.2816L7.53582 32.2823C7.94262 32.5949 8.34942 32.8757 8.78708 33.1571C10.3515 34.1568 12.0404 34.9067 13.824 35.4065C13.8554 35.4065 13.8862 35.4065 13.8862 35.4379C13.949 35.4379 14.0117 35.4693 14.0431 35.4693H14.1053C15.3566 35.782 16.6392 35.9692 17.9218 36.0005H18.485C19.9244 36.0005 21.3634 35.8442 22.7396 35.5007C24.3041 35.1257 25.8058 34.5323 27.2448 33.7511C28.3397 33.1576 29.3719 32.4386 30.3104 31.6265C30.3418 31.5952 30.3732 31.5643 30.4354 31.5329C30.4668 31.5016 30.4982 31.4707 30.5295 31.4707L30.5609 31.4393C30.5923 31.408 30.6231 31.3766 30.6545 31.3766C32.0312 30.1269 33.1575 28.7208 34.0961 27.1276C34.127 27.0962 34.127 27.0648 34.127 27.034C34.127 27.0026 34.1583 27.0026 34.1583 26.9717C34.4715 26.4405 34.7528 25.8784 35.0033 25.3471C35.5037 24.2537 35.8478 23.0976 36.1296 21.9415" fill="url(#paint0_linear_118_374)"/>
<defs>
<linearGradient id="paint0_linear_118_374" x1="-2.43618" y1="21.6525" x2="90.8522" y2="5.4278" gradientUnits="userSpaceOnUse">
<stop offset="0.0412" stop-color="#00FE90"/>
<stop offset="0.4185" stop-color="#00A2FF"/>
</linearGradient>
</defs>
</svg>
