<svg width="159" height="28" viewBox="0 0 159 28" fill="none" xmlns="http://www.w3.org/2000/svg">
<g clip-path="url(#clip0_275_212)">
<path d="M24.7915 16.3454C24.9654 15.369 25.0304 14.3493 24.9869 13.3511C24.9654 12.6786 24.8783 12.0493 24.7479 11.4418C24.6611 11.0729 24.5744 10.704 24.4658 10.3354C24.1833 9.40252 24.0947 8.64609 23.1729 8.40395C22.6244 8.25967 21.359 8.83824 21.359 8.83824C20.6636 9.25038 20.3597 10.0968 20.6636 10.8343C21.0765 11.9193 21.2722 13.0693 21.2504 14.2193V14.5882C21.1419 16.324 20.5119 17.9947 19.4254 19.3832C19.2301 19.6436 19.0126 19.8822 18.7736 20.1211C18.7736 20.1429 18.7519 20.1429 18.7519 20.1643L18.7301 20.1861C17.5572 21.2925 16.1451 22.074 14.6244 22.4643C14.6026 22.4643 14.5808 22.4643 14.559 22.4861C13.0165 22.855 11.3872 22.79 9.82292 22.2907H9.80114C9.78685 22.2907 9.77245 22.2835 9.75792 22.269C9.45364 22.1604 9.14935 22.0518 8.84542 21.9C8.69328 21.835 8.54114 21.7697 8.41078 21.6829L17.014 16.3236C18.1872 15.6075 18.0133 13.85 16.7097 13.3943L16.4708 13.3075C15.2976 12.8954 14.9936 11.3982 15.9061 10.5736L24.9219 2.22038L21.7283 4.08645C21.1633 4.41181 20.4683 4.32502 19.9251 3.93467C19.0344 3.28359 18.0569 2.74145 17.014 2.35074C15.4497 1.74288 13.7986 1.46109 12.1258 1.50431C10.4965 1.56931 8.93221 1.91645 7.45507 2.56752C5.95578 3.24002 4.63078 4.15145 3.52257 5.32324C2.34971 6.51681 1.459 7.92681 0.850425 9.51074C-0.257433 12.3532 -0.279218 15.4557 0.763639 18.2765C1.11114 19.2311 2.24114 19.6432 3.13185 19.1661L3.54435 18.9275C4.23971 18.5368 4.56542 17.7125 4.30471 16.9747C3.58792 15.0218 3.58792 12.8522 4.37007 10.8557C5.21721 8.6861 6.8465 6.97181 8.97578 6.01717C11.1047 5.08431 13.4729 5.01895 15.6669 5.86538C16.2319 6.08252 16.7751 6.36431 17.2965 6.69002L8.62828 11.7457C7.4115 12.44 7.58542 14.2411 8.91042 14.6965C10.0186 15.0872 10.3661 16.4975 9.56221 17.3654L1.524 26.0011L4.86971 23.9182C5.15221 24.1354 5.43471 24.3304 5.73864 24.5257C6.82507 25.22 7.99792 25.7407 9.2365 26.0879C9.25828 26.0879 9.27971 26.0879 9.27971 26.1097C9.32328 26.1097 9.36685 26.1315 9.38864 26.1315H9.43185C10.3008 26.3486 11.1915 26.4786 12.0822 26.5004H12.4733C13.4729 26.5004 14.4722 26.3918 15.4279 26.1532C16.5144 25.8929 17.5572 25.4807 18.5565 24.9382C19.3169 24.5261 20.0336 24.0268 20.6854 23.4629C20.7072 23.4411 20.729 23.4197 20.7722 23.3979C20.794 23.3761 20.8158 23.3547 20.8376 23.3547L20.8594 23.3329C20.8811 23.3111 20.9026 23.2893 20.9244 23.2893C21.8804 22.4215 22.6626 21.445 23.3144 20.3386C23.3358 20.3168 23.3358 20.295 23.3358 20.2736C23.3358 20.2518 23.3576 20.2518 23.3576 20.2304C23.5751 19.8615 23.7704 19.4711 23.9444 19.1022C24.2919 18.3429 24.5308 17.54 24.7265 16.7372" fill="url(#paint0_linear_275_212)"/>
</g>
<path d="M41.4064 7.90909L44.334 17.4972H44.4426L47.3702 7.90909H50.9114L46.4945 21H42.2821L37.8652 7.90909H41.4064ZM55.7262 21.1854C54.695 21.1854 53.8086 20.9744 53.0671 20.5526C52.3299 20.1264 51.761 19.5341 51.3604 18.7756C50.9641 18.0128 50.766 17.1286 50.766 16.1229C50.766 15.1129 50.9641 14.2287 51.3604 13.4702C51.761 12.7074 52.3299 12.1151 53.0671 11.6932C53.8086 11.267 54.695 11.054 55.7262 11.054C56.7575 11.054 57.6417 11.267 58.3789 11.6932C59.1204 12.1151 59.6893 12.7074 60.0856 13.4702C60.4862 14.2287 60.6864 15.1129 60.6864 16.1229C60.6864 17.1286 60.4862 18.0128 60.0856 18.7756C59.6893 19.5341 59.1204 20.1264 58.3789 20.5526C57.6417 20.9744 56.7575 21.1854 55.7262 21.1854ZM55.7454 18.8267C56.1204 18.8267 56.4379 18.7116 56.6978 18.4815C56.9577 18.2514 57.1559 17.9318 57.2923 17.5227C57.4329 17.1136 57.5032 16.6406 57.5032 16.1037C57.5032 15.5582 57.4329 15.081 57.2923 14.6719C57.1559 14.2628 56.9577 13.9432 56.6978 13.7131C56.4379 13.483 56.1204 13.3679 55.7454 13.3679C55.3576 13.3679 55.0295 13.483 54.761 13.7131C54.4968 13.9432 54.2944 14.2628 54.1538 14.6719C54.0174 15.081 53.9492 15.5582 53.9492 16.1037C53.9492 16.6406 54.0174 17.1136 54.1538 17.5227C54.2944 17.9318 54.4968 18.2514 54.761 18.4815C55.0295 18.7116 55.3576 18.8267 55.7454 18.8267ZM65.4134 7.90909V21H62.2876V7.90909H65.4134ZM72.9448 11.1818V13.483H66.7509V11.1818H72.9448ZM68.0485 8.82955H71.1742V17.9126C71.1742 18.1044 71.204 18.2599 71.2637 18.3793C71.3276 18.4943 71.4192 18.5774 71.5385 18.6286C71.6578 18.6754 71.8006 18.6989 71.9668 18.6989C72.0861 18.6989 72.2118 18.6882 72.3439 18.6669C72.4803 18.6413 72.5826 18.62 72.6507 18.603L73.1238 20.8594C72.9746 20.902 72.7637 20.9553 72.4909 21.0192C72.2225 21.0831 71.9007 21.1236 71.5257 21.1406C70.7928 21.1747 70.1642 21.0895 69.6401 20.8849C69.1202 20.6761 68.7218 20.3523 68.4448 19.9134C68.1721 19.4744 68.04 18.9226 68.0485 18.2578V8.82955ZM77.3074 21.1662C76.6809 21.1662 76.1248 21.0618 75.639 20.853C75.1575 20.6399 74.7761 20.3203 74.4949 19.8942C74.2179 19.4638 74.0794 18.9247 74.0794 18.277C74.0794 17.7315 74.1752 17.2713 74.367 16.8963C74.5588 16.5213 74.823 16.2166 75.1596 15.9822C75.4963 15.7479 75.8841 15.571 76.323 15.4517C76.7619 15.3281 77.2306 15.245 77.7292 15.2024C78.2875 15.1513 78.737 15.098 79.0779 15.0426C79.4189 14.983 79.666 14.8999 79.8194 14.7933C79.9771 14.6825 80.0559 14.527 80.0559 14.3267V14.2947C80.0559 13.9666 79.943 13.7131 79.7172 13.5341C79.4913 13.3551 79.1866 13.2656 78.8031 13.2656C78.3897 13.2656 78.0574 13.3551 77.8059 13.5341C77.5545 13.7131 77.3947 13.9602 77.3265 14.2756L74.4437 14.1733C74.5289 13.5767 74.7484 13.044 75.1021 12.5753C75.46 12.1023 75.9501 11.7315 76.5723 11.4631C77.1987 11.1903 77.9508 11.054 78.8287 11.054C79.4551 11.054 80.0325 11.1286 80.5609 11.2777C81.0893 11.4226 81.5495 11.6357 81.9416 11.9169C82.3336 12.1939 82.6362 12.5348 82.8493 12.9396C83.0666 13.3445 83.1752 13.8068 83.1752 14.3267V21H80.2349V19.6321H80.1582C79.9835 19.9645 79.7598 20.2457 79.487 20.4759C79.2186 20.706 78.9011 20.8786 78.5346 20.9936C78.1724 21.1087 77.7633 21.1662 77.3074 21.1662ZM78.2726 19.1207C78.6092 19.1207 78.9118 19.0526 79.1802 18.9162C79.4529 18.7798 79.6703 18.5923 79.8322 18.3537C79.9941 18.1108 80.0751 17.8295 80.0751 17.5099V16.5767C79.9856 16.6236 79.877 16.6662 79.7491 16.7045C79.6255 16.7429 79.4892 16.7791 79.34 16.8132C79.1909 16.8473 79.0375 16.8771 78.8798 16.9027C78.7221 16.9283 78.5708 16.9517 78.426 16.973C78.1319 17.0199 77.8805 17.0923 77.6717 17.1903C77.4672 17.2884 77.3095 17.4162 77.1987 17.5739C77.0922 17.7273 77.0389 17.9105 77.0389 18.1236C77.0389 18.4474 77.1539 18.6946 77.3841 18.8651C77.6184 19.0355 77.9146 19.1207 78.2726 19.1207ZM88.9537 21V7.90909H97.8897V10.4787H92.1177V13.1634H97.3208V15.7393H92.1177V21H88.9537ZM99.483 21V11.1818H102.609V21H99.483ZM101.049 10.0376C100.61 10.0376 100.233 9.89276 99.9176 9.60298C99.6023 9.30895 99.4446 8.95526 99.4446 8.5419C99.4446 8.13281 99.6023 7.78338 99.9176 7.49361C100.233 7.19957 100.61 7.05256 101.049 7.05256C101.492 7.05256 101.869 7.19957 102.18 7.49361C102.496 7.78338 102.653 8.13281 102.653 8.5419C102.653 8.95526 102.496 9.30895 102.18 9.60298C101.869 9.89276 101.492 10.0376 101.049 10.0376ZM107.724 15.4006V21H104.598V11.1818H107.57V12.9844H107.679C107.896 12.3835 108.267 11.9126 108.791 11.5717C109.316 11.2266 109.94 11.054 110.664 11.054C111.355 11.054 111.953 11.2095 112.46 11.5206C112.972 11.8274 113.368 12.2578 113.649 12.8118C113.935 13.3615 114.075 14.005 114.071 14.7422V21H110.945V15.3558C110.95 14.8104 110.811 14.3842 110.53 14.0774C110.253 13.7706 109.867 13.6172 109.373 13.6172C109.045 13.6172 108.755 13.6896 108.504 13.8345C108.257 13.9751 108.065 14.1776 107.928 14.4418C107.796 14.706 107.728 15.0256 107.724 15.4006ZM118.774 21.1662C118.148 21.1662 117.592 21.0618 117.106 20.853C116.624 20.6399 116.243 20.3203 115.962 19.8942C115.685 19.4638 115.546 18.9247 115.546 18.277C115.546 17.7315 115.642 17.2713 115.834 16.8963C116.026 16.5213 116.29 16.2166 116.626 15.9822C116.963 15.7479 117.351 15.571 117.79 15.4517C118.229 15.3281 118.697 15.245 119.196 15.2024C119.754 15.1513 120.204 15.098 120.545 15.0426C120.886 14.983 121.133 14.8999 121.286 14.7933C121.444 14.6825 121.523 14.527 121.523 14.3267V14.2947C121.523 13.9666 121.41 13.7131 121.184 13.5341C120.958 13.3551 120.653 13.2656 120.27 13.2656C119.857 13.2656 119.524 13.3551 119.273 13.5341C119.021 13.7131 118.862 13.9602 118.793 14.2756L115.911 14.1733C115.996 13.5767 116.215 13.044 116.569 12.5753C116.927 12.1023 117.417 11.7315 118.039 11.4631C118.665 11.1903 119.418 11.054 120.295 11.054C120.922 11.054 121.499 11.1286 122.028 11.2777C122.556 11.4226 123.016 11.6357 123.408 11.9169C123.8 12.1939 124.103 12.5348 124.316 12.9396C124.533 13.3445 124.642 13.8068 124.642 14.3267V21H121.702V19.6321H121.625C121.45 19.9645 121.227 20.2457 120.954 20.4759C120.685 20.706 120.368 20.8786 120.001 20.9936C119.639 21.1087 119.23 21.1662 118.774 21.1662ZM119.739 19.1207C120.076 19.1207 120.379 19.0526 120.647 18.9162C120.92 18.7798 121.137 18.5923 121.299 18.3537C121.461 18.1108 121.542 17.8295 121.542 17.5099V16.5767C121.452 16.6236 121.344 16.6662 121.216 16.7045C121.092 16.7429 120.956 16.7791 120.807 16.8132C120.658 16.8473 120.504 16.8771 120.347 16.9027C120.189 16.9283 120.038 16.9517 119.893 16.973C119.599 17.0199 119.347 17.0923 119.138 17.1903C118.934 17.2884 118.776 17.4162 118.665 17.5739C118.559 17.7273 118.506 17.9105 118.506 18.1236C118.506 18.4474 118.621 18.6946 118.851 18.8651C119.085 19.0355 119.381 19.1207 119.739 19.1207ZM129.679 15.4006V21H126.553V11.1818H129.526V12.9844H129.634C129.852 12.3835 130.222 11.9126 130.746 11.5717C131.271 11.2266 131.895 11.054 132.619 11.054C133.31 11.054 133.908 11.2095 134.415 11.5206C134.927 11.8274 135.323 12.2578 135.604 12.8118C135.89 13.3615 136.031 14.005 136.026 14.7422V21H132.901V15.3558C132.905 14.8104 132.766 14.3842 132.485 14.0774C132.208 13.7706 131.822 13.6172 131.328 13.6172C131 13.6172 130.71 13.6896 130.459 13.8345C130.212 13.9751 130.02 14.1776 129.884 14.4418C129.751 14.706 129.683 15.0256 129.679 15.4006ZM142.545 21.1854C141.509 21.1854 140.621 20.9723 139.879 20.5462C139.142 20.12 138.575 19.5277 138.179 18.7692C137.782 18.0064 137.584 17.1243 137.584 16.1229C137.584 15.1172 137.782 14.2351 138.179 13.4766C138.579 12.7138 139.148 12.1193 139.885 11.6932C140.627 11.267 141.511 11.054 142.538 11.054C143.446 11.054 144.236 11.218 144.91 11.5462C145.587 11.8743 146.116 12.3388 146.495 12.9396C146.878 13.5362 147.081 14.2372 147.102 15.0426H144.181C144.121 14.5398 143.951 14.1456 143.67 13.8601C143.393 13.5746 143.03 13.4318 142.583 13.4318C142.221 13.4318 141.903 13.5341 141.631 13.7386C141.358 13.9389 141.145 14.2372 140.991 14.6335C140.842 15.0256 140.768 15.5114 140.768 16.0909C140.768 16.6705 140.842 17.1605 140.991 17.5611C141.145 17.9574 141.358 18.2578 141.631 18.4624C141.903 18.6626 142.221 18.7628 142.583 18.7628C142.873 18.7628 143.128 18.701 143.35 18.5774C143.576 18.4538 143.761 18.2727 143.906 18.0341C144.051 17.7912 144.143 17.4972 144.181 17.152H147.102C147.072 17.9616 146.87 18.669 146.495 19.2741C146.124 19.8793 145.602 20.3501 144.929 20.6868C144.26 21.0192 143.465 21.1854 142.545 21.1854ZM153.291 21.1854C152.264 21.1854 151.378 20.983 150.632 20.5781C149.891 20.169 149.32 19.5874 148.919 18.8331C148.523 18.0746 148.325 17.1733 148.325 16.1293C148.325 15.1151 148.525 14.2287 148.925 13.4702C149.326 12.7074 149.891 12.1151 150.619 11.6932C151.348 11.267 152.207 11.054 153.195 11.054C153.894 11.054 154.533 11.1626 155.113 11.38C155.692 11.5973 156.193 11.919 156.615 12.3452C157.037 12.7713 157.365 13.2976 157.599 13.924C157.834 14.5462 157.951 15.2599 157.951 16.0653V16.8452H149.418V15.0298H155.043C155.038 14.6974 154.96 14.4013 154.806 14.1413C154.653 13.8814 154.442 13.679 154.173 13.5341C153.909 13.3849 153.604 13.3104 153.259 13.3104C152.91 13.3104 152.597 13.3892 152.32 13.5469C152.043 13.7003 151.823 13.9112 151.661 14.1797C151.499 14.4439 151.414 14.7443 151.406 15.081V16.9283C151.406 17.3288 151.484 17.6804 151.642 17.983C151.8 18.2812 152.023 18.5135 152.313 18.6797C152.603 18.8459 152.948 18.929 153.349 18.929C153.626 18.929 153.877 18.8906 154.103 18.8139C154.329 18.7372 154.523 18.6243 154.685 18.4751C154.847 18.326 154.968 18.1428 155.049 17.9254L157.919 18.0085C157.8 18.652 157.538 19.2124 157.133 19.6896C156.732 20.1626 156.206 20.5312 155.554 20.7955C154.902 21.0554 154.148 21.1854 153.291 21.1854Z" fill="url(#paint1_linear_275_212)"/>
<defs>
<linearGradient id="paint0_linear_275_212" x1="-2.05529" y1="16.5365" x2="62.7283" y2="5.26931" gradientUnits="userSpaceOnUse">
<stop offset="0.0412" stop-color="#00FE90"/>
<stop offset="0.4185" stop-color="#00A2FF"/>
</linearGradient>
<linearGradient id="paint1_linear_275_212" x1="37" y1="14" x2="159" y2="14" gradientUnits="userSpaceOnUse">
<stop stop-color="#00FE90"/>
<stop offset="1" stop-color="#00A2FF"/>
</linearGradient>
<clipPath id="clip0_275_212">
<rect width="25" height="25" fill="white" transform="translate(0 1.5)"/>
</clipPath>
</defs>
</svg>
