<svg width="87" height="87" viewBox="0 0 87 87" fill="none" xmlns="http://www.w3.org/2000/svg">
<circle cx="43.5" cy="43.5" r="43.5" fill="#0A0C0C"/>
<g clip-path="url(#clip0_357_1084)">
<path fill-rule="evenodd" clip-rule="evenodd" d="M27.096 45.6352L27.3648 46.1056C28.2384 47.6288 30.1872 48.144 31.7104 47.2704L45.1504 39.4976L45.9568 40.7968L46.4944 41.7152L46.584 42.1184V55.9616C46.584 57.7088 48.0176 59.1424 49.7648 59.1424H50.3024C52.0496 59.1424 53.4832 57.7088 53.4832 55.9616V34.144C53.4832 32.5088 52.4752 31.0976 51.0416 30.4928C49.72 29.7984 48.152 29.8208 46.8528 30.56L28.2832 41.2896C26.76 42.1632 26.2448 44.112 27.1184 45.6352H27.096Z" fill="url(#paint0_linear_357_1084)"/>
<path fill-rule="evenodd" clip-rule="evenodd" d="M37.176 39.161C38.5648 38.9594 41.6336 39.2282 42.9104 39.5194C44.1872 39.8106 45.3296 40.729 45.3296 40.729C45.3296 40.729 45.2848 40.7066 45.2176 40.6842C46.1808 41.1098 46.584 42.0954 46.584 42.0954C46.1584 37.3914 42.8432 33.8746 37.4 36.0026L28.6192 41.065C28.5744 41.0874 29.6944 40.2362 37.1984 39.1386L37.176 39.161ZM43.3136 40.6394C43.0896 40.7066 42.8432 40.8186 42.5744 40.953C42.8208 40.8186 43.0672 40.7066 43.3136 40.6394Z" fill="url(#paint1_linear_357_1084)"/>
<path fill-rule="evenodd" clip-rule="evenodd" d="M33.3456 53.677L38.2736 50.877L38.5872 50.6978C38.5872 50.6978 39.1248 50.4066 39.5728 50.6978C40.0208 50.989 39.9984 51.3698 39.9984 51.3698L40.0656 57.6194C40.0656 57.6194 39.8864 58.1346 39.5728 58.3138C39.2592 58.493 39.0576 58.5378 38.5648 58.381C36.8848 57.821 33.9056 56.6114 32.9872 54.9762C32.8304 54.7074 32.8752 54.3938 32.9424 54.237C33.032 53.901 33.2336 53.7442 33.3456 53.677Z" fill="url(#paint2_linear_357_1084)"/>
<path d="M43 72C35.272 72 28.2608 68.864 23.1984 63.8016C18.136 58.7392 15 51.728 15 44C15 36.272 18.136 29.2608 23.1984 24.1984C28.2608 19.136 35.272 16 43 16C50.728 16 57.7392 19.136 62.8016 24.1984C67.864 29.2608 71 36.272 71 44C71 51.728 67.864 58.7392 62.8016 63.8016C57.7392 68.864 50.728 72 43 72ZM25.08 61.92C29.672 66.512 36.0112 69.3344 43 69.3344C50.0112 69.3344 56.328 66.4896 60.92 61.92C65.512 57.328 68.3344 50.9888 68.3344 44C68.3344 36.9888 65.4896 30.672 60.92 26.08C56.328 21.488 49.9888 18.6656 43 18.6656C35.9888 18.6656 29.672 21.5104 25.08 26.08C20.488 30.672 17.6656 37.0112 17.6656 44C17.6656 51.0112 20.5104 57.328 25.08 61.92Z" fill="url(#paint3_linear_357_1084)"/>
<path fill-rule="evenodd" clip-rule="evenodd" d="M26.6704 44.1347C26.6704 44.1347 26.4016 42.7011 27.8576 41.5363C28.0368 41.4019 28.2384 41.2675 28.4624 41.1555C30.568 39.9235 35.7872 39.3635 37.176 39.1619C38.5648 38.9603 41.6336 39.2291 42.9104 39.5203C44.1872 39.8115 45.3296 40.7299 45.3296 40.7299C45.3296 40.7299 44.008 40.1475 42.5968 40.9539C41.1856 41.7603 31.7104 47.2483 31.7104 47.2483C31.7104 47.2483 30.6352 47.8083 29.896 47.6739C29.1344 47.5171 28.3056 47.4275 27.5888 46.4419C27.4544 46.2179 27.3648 46.1059 27.1856 45.7923L26.8944 45.1875L26.7376 44.6275L26.6928 44.1347H26.6704Z" fill="url(#paint4_linear_357_1084)"/>
</g>
<defs>
<linearGradient id="paint0_linear_357_1084" x1="40.0884" y1="29.9883" x2="40.0884" y2="59.1424" gradientUnits="userSpaceOnUse">
<stop stop-color="#4DFC8D"/>
<stop offset="1" stop-color="#1FC3F1"/>
</linearGradient>
<linearGradient id="paint1_linear_357_1084" x1="39.4028" y1="35.0673" x2="37.2524" y2="42.8401" gradientUnits="userSpaceOnUse">
<stop stop-color="#216882"/>
<stop offset="0.298" stop-color="#3AA698"/>
<stop offset="0.5412" stop-color="#53E4AF"/>
<stop offset="1" stop-color="#53E4AF"/>
</linearGradient>
<linearGradient id="paint2_linear_357_1084" x1="33.9958" y1="51.5451" x2="40.1558" y2="55.6891" gradientUnits="userSpaceOnUse">
<stop stop-color="#4DFC8D"/>
<stop offset="0.502" stop-color="#1FC3F1"/>
<stop offset="1" stop-color="#1FC3F1"/>
</linearGradient>
<linearGradient id="paint3_linear_357_1084" x1="43" y1="16" x2="43" y2="72" gradientUnits="userSpaceOnUse">
<stop stop-color="#4DFC8D"/>
<stop offset="1" stop-color="#1FC3F1"/>
</linearGradient>
<linearGradient id="paint4_linear_357_1084" x1="37.2124" y1="38.47" x2="33.9644" y2="48.0572" gradientUnits="userSpaceOnUse">
<stop stop-color="#216882"/>
<stop offset="1" stop-color="#53E4AF"/>
</linearGradient>
<clipPath id="clip0_357_1084">
<rect width="56" height="56" fill="white" transform="translate(15 16)"/>
</clipPath>
</defs>
</svg>
