<svg width="25" height="25" viewBox="0 0 25 25" fill="none" xmlns="http://www.w3.org/2000/svg">
<path d="M7.29436 24C13.6853 24 13.6853 23.917 14.7689 23.6364C16.185 23.2696 10.7706 20 7.29436 20C3.81808 20 1 20.8954 1 22C1 23.1046 3.81822 24 7.29436 24Z" fill="black"/>
<path d="M20.7145 5.20616L21 5.511L20.7504 5.84535C12.6549 16.69 7.99144 21.6002 6.01276 20.9417C4.80754 20.5405 3.59888 19.3342 2.3902 17.5824C1.96535 16.9667 1.5664 16.3183 1.20356 15.6731C0.961935 15.2434 0.757426 14.8516 0.651241 14.6309C0.515788 14.3493 0.4586 14.1759 0.41323 13.9481C0.410461 13.9341 0.410461 13.9341 0.407831 13.9207C0.388894 13.824 0.382342 13.7934 0.368187 13.7406C0.124591 12.8309 0 11.8885 0 10.9303C0 4.89365 4.93922 0 11.0321 0C12.9409 0 14.7803 0.481316 16.4105 1.38483L16.4526 1.41092C17.7873 2.33158 19.207 3.59664 20.7145 5.20616ZM15.8948 2.24804C14.42 1.43538 12.7583 1.00278 11.0321 1.00278C5.4982 1.00278 1.01212 5.44747 1.01212 10.9303C1.01212 11.8015 1.12528 12.6575 1.34645 13.4834C1.36833 13.5651 1.37822 13.6112 1.40142 13.7297C1.40385 13.7421 1.40385 13.7421 1.4062 13.7539C1.43548 13.9009 1.46637 13.9946 1.56487 14.1994C1.66174 14.4007 1.85641 14.7737 2.0877 15.185C2.43644 15.8052 2.81967 16.428 3.22573 17.0165C4.31776 18.5992 5.40078 19.6801 6.33506 19.9911C7.58114 20.4058 12.2721 15.4859 19.6856 5.58494C18.3396 4.1774 17.0753 3.06509 15.8948 2.24804Z" fill="black"/>
<path d="M16.1429 2.24444C14.6424 1.43232 12.9516 1 11.1952 1C5.56454 1 1 5.44177 1 10.921C1 11.7916 1.11514 12.6471 1.34019 13.4724C1.36244 13.554 1.3725 13.6001 1.39611 13.7185C1.39859 13.7309 1.39859 13.7309 1.40097 13.7427C1.43076 13.8897 1.4622 13.9833 1.56242 14.1879C1.66099 14.3891 1.85906 14.7619 2.09439 15.1729C2.44923 15.7926 2.83916 16.4151 3.25233 17.0032C4.36345 18.5848 5.46541 19.6651 6.41603 19.9758C7.6839 20.3903 12.4569 15.4736 20 5.57915C18.6305 4.17254 17.3441 3.06095 16.1429 2.24444Z" fill="#EC1C79"/>
<path d="M13 24C6.92487 24 2 19.0751 2 13C2 6.92487 6.92487 2 13 2C19.0751 2 24 6.92487 24 13C24 19.0751 19.0751 24 13 24ZM13 22.9908C18.5178 22.9908 22.9908 18.5178 22.9908 13C22.9908 7.48222 18.5178 3.00917 13 3.00917C7.48222 3.00917 3.00917 7.48222 3.00917 13C3.00917 18.5178 7.48222 22.9908 13 22.9908Z" fill="black"/>
<path d="M13 23C18.5228 23 23 18.5228 23 13C23 7.47715 18.5228 3 13 3C7.47715 3 3 7.47715 3 13C3 18.5228 7.47715 23 13 23Z" fill="white"/>
<path fill-rule="evenodd" clip-rule="evenodd" d="M5.34655 15L4 11.0113H5.17967L5.88171 13.3027L6.65857 11H7.61957L8.39642 13.3027L9.09847 11.0113H10.2551L8.90857 15H7.93606L7.12468 12.7199L6.31905 15H5.34655ZM10.6982 14.9717V11.0113H13.938V11.9448H11.8031V12.5446H13.7366V13.4102H11.8031V14.0382H13.9668V14.9717H10.6982ZM15.5205 14.9717V11.9731H14.312V11.0113H17.8453V11.9731H16.6368V14.9717H15.5205ZM18.3344 14.9717V11.0113H19.4508V12.4936H20.8836V11.0113H22V14.9717H20.8836V13.4668H19.4508V14.9717H18.3344Z" fill="black"/>
<path d="M0.341531 10.1051C0.0364545 9.96101 -0.0872023 9.61066 0.0653361 9.32255C0.217875 9.03443 0.588845 8.91765 0.893922 9.0617L2.65847 9.89493C2.96355 10.039 3.0872 10.3893 2.93466 10.6775C2.78213 10.9656 2.41116 11.0824 2.10608 10.9383L0.341531 10.1051Z" fill="black"/>
<path d="M0.358943 12.1498C0.0492499 12.0104 -0.0859407 11.6524 0.0569862 11.3502C0.199913 11.0481 0.566834 10.9161 0.876527 11.0556L2.64106 11.8502C2.95075 11.9896 3.08594 12.3476 2.94301 12.6498C2.80009 12.9519 2.43317 13.0839 2.12347 12.9444L0.358943 12.1498Z" fill="black"/>
</svg>
